<svg width="20" height="21" viewBox="0 0 20 21" fill="none" xmlns="http://www.w3.org/2000/svg">
<path fill-rule="evenodd" clip-rule="evenodd" d="M15.95 14.3889C16.65 14.6531 16.9682 15.0493 16.9682 15.8087C16.9682 16.1389 16.9761 16.3866 16.9841 16.6342C16.992 16.8819 17 17.1295 17 17.4597C17 17.5918 17 17.6908 16.9045 17.7899C16.8409 17.8559 16.7454 17.8889 16.65 17.8889H3.34999C3.25454 17.8889 3.15907 17.8559 3.09543 17.7899C3 17.6909 3 17.5918 3 17.4598C3 17.4598 3 17.4597 3 17.4597C3 17.1295 3.00795 16.8819 3.0159 16.6342C3.0159 16.6342 3.01591 16.6342 3.01591 16.6342C3.02386 16.3866 3.03181 16.1389 3.03181 15.8087C3.03181 15.0493 3.34998 14.6531 4.04998 14.3889C4.81361 14.1248 6.75454 13.3653 7.48636 13.0682C8.0909 12.804 8.09091 12.4738 8.09091 12.2427V11.3512C7.32727 10.3606 7.07273 9.00684 6.97727 7.75212C6.91364 6.8606 6.91361 5.70495 7.39089 4.9125C7.86816 4.12004 9.01361 3.88892 9.96815 3.88892H10C10.9545 3.88892 12.1318 4.12004 12.6091 4.9125C13.0863 5.70495 13.0864 6.8606 13.0227 7.75212C12.9273 9.00684 12.6727 10.3606 11.9091 11.3512V12.2427C11.9125 12.2672 11.9151 12.2932 11.9179 12.3204M11.9179 12.3204C11.9413 12.5494 11.9732 12.8616 12.5136 13.0682C13.2454 13.3653 15.1863 14.1248 15.95 14.3889" fill="#222222"/>
</svg>
