<svg width="20" height="21" viewBox="0 0 20 21" fill="none" xmlns="http://www.w3.org/2000/svg">
<circle cx="10" cy="10.5555" r="8" fill="#222222"/>
<path fill-rule="evenodd" clip-rule="evenodd" d="M12.9866 14.5555L10.9099 12.4788C10.4175 12.7928 9.83229 12.9784 9.20428 12.9784C7.43443 12.9784 6 11.5439 6 9.76696C6 7.98998 7.43443 6.55554 9.21142 6.55554C10.9884 6.55554 12.4228 7.98998 12.4228 9.76696C12.4228 10.395 12.2373 10.973 11.9233 11.4726L14 13.5422L12.9866 14.5555ZM9.21137 7.98285C8.22653 7.98285 7.42725 8.78214 7.42725 9.76697C7.42725 10.7518 8.22653 11.5511 9.21137 11.5511C10.1962 11.5511 10.9955 10.7518 10.9955 9.76697C10.9955 8.78214 10.1962 7.98285 9.21137 7.98285Z" fill="white"/>
</svg>
